<svg width="124" height="73" viewBox="0 0 124 73" fill="none" xmlns="http://www.w3.org/2000/svg">
<path d="M81.4738 4.34437e-06H89.2734C89.2836 -0.000119254 89.2937 0.00239629 89.3026 0.00731374C89.3115 0.0122312 89.319 0.0193853 89.3244 0.028067C89.3297 0.0367486 89.3327 0.0466661 89.3331 0.0568576C89.3335 0.0670492 89.3312 0.0771626 89.3265 0.0862178L74.9746 27.5087C74.9696 27.5183 74.9622 27.5263 74.953 27.5319C74.9439 27.5375 74.9334 27.5405 74.9226 27.5406H67.1242C67.114 27.5407 67.104 27.5382 67.095 27.5333C67.0861 27.5284 67.0786 27.5212 67.0732 27.5126C67.0679 27.5039 67.0649 27.494 67.0645 27.4838C67.0641 27.4736 67.0664 27.4635 67.0711 27.4544L81.4219 0.0318947C81.4268 0.0223551 81.4343 0.0143384 81.4434 0.0087194C81.4526 0.00310036 81.4631 8.95966e-05 81.4738 4.34437e-06Z" fill="white"/>
<path d="M60.4598 38.777C60.4976 38.7203 60.4822 38.692 60.4137 38.692H44.1449C44.1338 38.6918 44.1229 38.6888 44.1133 38.6831C44.1038 38.6774 44.0958 38.6694 44.0904 38.6597C44.0849 38.65 44.082 38.6391 44.082 38.628C44.0821 38.6169 44.085 38.6059 44.0906 38.5963L60.4503 10.2597C60.4628 10.2378 60.4808 10.2196 60.5026 10.207C60.5244 10.1943 60.5491 10.1877 60.5743 10.1876H68.4589C68.5621 10.1876 68.5877 10.2321 68.5357 10.3211L56.2872 31.5372C56.2805 31.5488 56.277 31.5619 56.277 31.5752C56.2771 31.5885 56.2806 31.6016 56.2873 31.6131C56.294 31.6246 56.3037 31.6342 56.3153 31.6408C56.3268 31.6473 56.34 31.6507 56.3533 31.6506C57.1966 31.6498 59.2189 31.6498 62.4203 31.6506C66.659 31.6506 69.4793 35.8067 68.0692 39.7336C67.9172 40.1557 67.5318 40.8391 66.9129 41.7839C66.2917 42.7311 64.0915 46.1132 60.3121 51.9302C60.2877 51.9672 60.2535 51.9857 60.2094 51.9857H51.9398C51.9327 51.9858 51.9258 51.984 51.9197 51.9804C51.9136 51.9768 51.9086 51.9717 51.9052 51.9655C51.9018 51.9593 51.9001 51.9523 51.9004 51.9453C51.9007 51.9382 51.9028 51.9314 51.9067 51.9255L60.4598 38.777Z" fill="white"/>
<path d="M41.4775 19.134H49.5015C49.5086 19.1339 49.5156 19.1356 49.5218 19.1391C49.528 19.1426 49.5332 19.1477 49.5368 19.1538C49.5404 19.1599 49.5423 19.1669 49.5423 19.174C49.5423 19.1811 49.5405 19.1881 49.5369 19.1942L44.8033 27.3918C44.7998 27.398 44.7946 27.4031 44.7884 27.4067C44.7821 27.4102 44.7751 27.412 44.7679 27.4119H36.7439C36.7368 27.412 36.7298 27.4102 36.7236 27.4068C36.7174 27.4033 36.7123 27.3982 36.7087 27.3921C36.7051 27.386 36.7032 27.379 36.7031 27.3719C36.7031 27.3648 36.705 27.3578 36.7085 27.3516L41.4421 19.1541C41.4457 19.1479 41.4509 19.1427 41.4571 19.1392C41.4633 19.1357 41.4704 19.1339 41.4775 19.134Z" fill="white"/>
<path d="M0.78657 69.4131C2.01564 70.2044 3.32738 70.5012 4.72179 70.3036C4.84147 70.2863 5.02216 70.2052 5.26388 70.0603C5.45127 69.9477 5.57332 69.8029 5.63 69.6257C5.86857 68.8769 5.1446 68.571 4.53164 68.3951C2.95377 67.9415 0.325964 67.7502 0.18424 65.5523C0.0814895 63.9544 1.11726 62.8265 2.61482 62.4993C4.26984 62.1379 5.86149 62.3332 7.38975 63.0851C7.42755 63.1037 7.45659 63.1364 7.47071 63.1761C7.48482 63.2158 7.4829 63.2594 7.46534 63.2977L6.79096 64.8C6.78729 64.8081 6.78195 64.8153 6.77526 64.8212C6.76857 64.8271 6.7607 64.8315 6.75213 64.8341C6.74357 64.8368 6.73451 64.8377 6.72554 64.8367C6.71657 64.8357 6.70787 64.8328 6.70002 64.8283C5.65914 64.2252 4.55959 64.0083 3.40139 64.1776C3.10849 64.2201 2.6597 64.4539 2.4979 64.7492C2.07745 65.5192 2.7778 65.9267 3.46398 66.1168C5.36545 66.6448 8.23892 66.842 7.84563 69.6399C7.65667 70.9815 6.3776 71.8496 5.09736 72.048C3.38485 72.3137 1.48811 72.0704 0.0590501 71.1209C0.0328984 71.1034 0.0137808 71.0773 0.00512344 71.0472C-0.00353387 71.0172 -0.00116383 70.9851 0.0118093 70.9567L0.693267 69.4415C0.697133 69.433 0.702758 69.4254 0.709756 69.4192C0.716753 69.4131 0.724962 69.4085 0.733818 69.4058C0.742674 69.4031 0.751969 69.4024 0.761073 69.4036C0.770177 69.4049 0.778873 69.4081 0.78657 69.4131Z" fill="white"/>
<path d="M27.5919 62.3328C30.4405 62.3328 32.7872 64.2709 32.7884 67.24C32.7884 70.2103 30.4417 72.1496 27.593 72.1496C24.7444 72.1496 22.3965 70.2127 22.3965 67.2424C22.3965 64.2721 24.742 62.334 27.5919 62.3328ZM27.5506 70.2821C27.9409 70.2875 28.3286 70.2143 28.6913 70.0665C29.0541 69.9188 29.3849 69.6995 29.6648 69.4211C29.9448 69.1427 30.1684 68.8107 30.3229 68.4439C30.4775 68.0772 30.5599 67.683 30.5654 67.2839C30.5767 66.4777 30.2743 65.7002 29.7248 65.1223C29.1754 64.5445 28.4238 64.2137 27.6355 64.2027C27.2452 64.1972 26.8575 64.2704 26.4948 64.4182C26.132 64.5659 25.8012 64.7852 25.5213 65.0636C25.2413 65.342 25.0177 65.6741 24.8632 66.0408C24.7087 66.4075 24.6262 66.8017 24.6207 67.2009C24.6094 68.007 24.9118 68.7846 25.4612 69.3624C26.0107 69.9402 26.7623 70.271 27.5506 70.2821Z" fill="white"/>
<path d="M80.1638 70.4843C80.1896 70.4669 80.2107 70.4433 80.2254 70.4158C80.24 70.3882 80.2476 70.3574 80.2476 70.3261V67.3109C80.2476 67.2479 80.2791 67.2164 80.3421 67.2164H81.1617C81.1837 67.2164 81.2047 67.2251 81.2202 67.2406C81.2357 67.2561 81.2444 67.2771 81.2444 67.2991V70.8115C81.2444 70.8603 81.2259 70.8996 81.1889 70.9296C79.0264 72.6775 75.4314 72.4413 73.7118 70.195C73.0693 69.3564 72.748 68.3769 72.748 67.2565C72.7469 65.237 73.8523 63.5197 75.7266 62.7875C77.4828 62.1001 79.8059 62.2855 81.2255 63.6886C81.2508 63.7138 81.2651 63.7479 81.2653 63.7837C81.2655 63.8195 81.2517 63.8541 81.2267 63.8799L80.7496 64.3713C80.7039 64.4177 80.6567 64.4197 80.6078 64.3772C79.5685 63.463 78.3391 63.1465 76.9195 63.4276C75.6455 63.6788 74.7251 64.3716 74.1582 65.5062C73.6941 66.4369 73.6409 67.6368 74.0058 68.6112C74.6838 70.4205 76.3975 71.3016 78.3036 71.1233C79.0075 71.0579 79.6276 70.8449 80.1638 70.4843Z" fill="white"/>
<path d="M117.317 64.9122C117.166 67.3924 122.393 66.2125 123.062 68.7872C123.506 70.502 122.296 71.7256 120.657 71.989C119.092 72.2405 117.341 71.9346 116.121 70.9071C116.099 70.8887 116.084 70.8635 116.078 70.8354C116.073 70.8073 116.077 70.778 116.09 70.7524L116.427 70.1111C116.45 70.0654 116.482 70.0588 116.522 70.091C117.747 71.0681 119.152 71.3945 120.74 71.0701C121.452 70.926 122.09 70.3698 122.12 69.5879C122.159 68.564 121.237 68.1589 120.385 67.9285C119.997 67.8238 119.442 67.6805 118.719 67.4987C117.975 67.3109 117.184 66.9884 116.719 66.3956C116.229 65.7684 116.187 64.8626 116.448 64.1681C116.828 63.156 117.78 62.6351 118.818 62.4792C120.202 62.2714 121.489 62.5056 122.681 63.182C122.748 63.2198 122.766 63.2733 122.734 63.3426L122.446 63.9839C122.441 63.9953 122.434 64.0055 122.424 64.0138C122.415 64.0221 122.404 64.0284 122.392 64.0322C122.381 64.036 122.368 64.0372 122.356 64.0358C122.344 64.0344 122.332 64.0304 122.321 64.024C121.224 63.3666 120.076 63.1516 118.88 63.3792C118.065 63.5339 117.37 64.0382 117.317 64.9122Z" fill="white"/>
<path d="M15.0643 66.2267C16.0666 66.2267 16.7559 66.2243 17.1323 66.2196C17.1498 66.2196 17.1666 66.2126 17.179 66.2002C17.1915 66.1878 17.1984 66.171 17.1984 66.1534V62.5572C17.1984 62.5476 17.2003 62.538 17.204 62.5292C17.2077 62.5203 17.2131 62.5122 17.2199 62.5054C17.2267 62.4986 17.2347 62.4932 17.2436 62.4895C17.2525 62.4859 17.262 62.484 17.2716 62.484H19.3668C19.3815 62.484 19.3956 62.4898 19.4061 62.5002C19.4165 62.5106 19.4223 62.5247 19.4223 62.5395V71.9075C19.4223 71.9179 19.4203 71.9281 19.4163 71.9377C19.4123 71.9473 19.4065 71.9561 19.3991 71.9634C19.3918 71.9708 19.3831 71.9766 19.3735 71.9806C19.3639 71.9845 19.3536 71.9866 19.3432 71.9866H17.2716C17.2519 71.9866 17.233 71.9789 17.219 71.9651C17.2051 71.9514 17.1972 71.9328 17.1972 71.9134V68.1766C17.1972 68.1603 17.1908 68.1447 17.1793 68.1331C17.1677 68.1216 17.1521 68.1152 17.1358 68.1152C16.4414 68.1128 15.7505 68.1116 15.0631 68.1116C14.3765 68.1116 13.686 68.1128 12.9916 68.1152C12.9753 68.1152 12.9597 68.1216 12.9481 68.1331C12.9366 68.1447 12.9302 68.1603 12.9302 68.1766V71.9134C12.9302 71.9328 12.9223 71.9514 12.9084 71.9651C12.8944 71.9789 12.8755 71.9866 12.8557 71.9866H10.7842C10.7632 71.9866 10.7431 71.9783 10.7283 71.9634C10.7134 71.9486 10.7051 71.9285 10.7051 71.9075V62.5395C10.7051 62.5247 10.7109 62.5106 10.7213 62.5002C10.7317 62.4898 10.7459 62.484 10.7606 62.484H12.8557C12.8654 62.484 12.8749 62.4859 12.8838 62.4895C12.8927 62.4932 12.9007 62.4986 12.9075 62.5054C12.9143 62.5122 12.9197 62.5203 12.9234 62.5292C12.9271 62.538 12.929 62.5476 12.929 62.5572V66.1534C12.929 66.171 12.9359 66.1878 12.9483 66.2002C12.9607 66.2126 12.9776 66.2196 12.9951 66.2196C13.3715 66.2243 14.0612 66.2267 15.0643 66.2267Z" fill="white"/>
<path d="M37.981 69.4285V71.9181C37.981 71.963 37.9585 71.9854 37.9137 71.9854H35.8492C35.8229 71.9854 35.7977 71.9751 35.7791 71.9567C35.7605 71.9383 35.75 71.9134 35.75 71.8874V62.5324C35.75 62.5208 35.7546 62.5097 35.7628 62.5015C35.771 62.4933 35.7821 62.4887 35.7937 62.4887C37.6416 62.4761 39.0368 62.4761 39.9793 62.4887C41.7556 62.5123 43.6015 63.2587 43.9346 65.2086C44.2369 66.9825 43.4846 68.4848 41.8194 69.0694C41.3091 69.2482 40.8481 69.3438 40.4364 69.3564C39.8002 69.3761 39.0042 69.3781 38.0483 69.3623C38.0395 69.3622 38.0308 69.3638 38.0226 69.367C38.0145 69.3703 38.007 69.3751 38.0008 69.3813C37.9945 69.3874 37.9895 69.3948 37.9861 69.4029C37.9827 69.411 37.981 69.4197 37.981 69.4285ZM37.9822 64.3583V67.5164C37.9822 67.5264 37.9861 67.536 37.9932 67.5431C38.0003 67.5502 38.0099 67.5542 38.02 67.5542H40.0868C40.5272 67.5542 40.9495 67.397 41.2609 67.1173C41.5724 66.8375 41.7473 66.4581 41.7473 66.0625V65.8121C41.7473 65.4165 41.5724 65.0371 41.2609 64.7574C40.9495 64.4776 40.5272 64.3205 40.0868 64.3205H38.02C38.0099 64.3205 38.0003 64.3245 37.9932 64.3316C37.9861 64.3386 37.9822 64.3483 37.9822 64.3583Z" fill="white"/>
<path d="M49.0347 62.4781H46.9466C46.9081 62.4781 46.877 62.5093 46.877 62.5477V71.9157C46.877 71.9542 46.9081 71.9854 46.9466 71.9854H49.0347C49.0732 71.9854 49.1044 71.9542 49.1044 71.9157V62.5477C49.1044 62.5093 49.0732 62.4781 49.0347 62.4781Z" fill="white"/>
<path d="M59.285 66.79V68.4872C59.285 68.4985 59.2805 68.5093 59.2725 68.5172C59.2645 68.5252 59.2537 68.5297 59.2424 68.5297H54.9458C54.9402 68.5297 54.9347 68.5308 54.9296 68.5329C54.9244 68.5351 54.9197 68.5382 54.9158 68.5421C54.9118 68.5461 54.9087 68.5508 54.9065 68.5559C54.9044 68.5611 54.9033 68.5666 54.9033 68.5722V71.9417C54.9033 71.953 54.8988 71.9638 54.8909 71.9718C54.8829 71.9798 54.8721 71.9842 54.8608 71.9842H52.7066C52.6953 71.9842 52.6845 71.9798 52.6765 71.9718C52.6685 71.9638 52.6641 71.953 52.6641 71.9417V62.5206C52.6641 62.5093 52.6685 62.4985 52.6765 62.4905C52.6845 62.4825 52.6953 62.4781 52.7066 62.4781H59.82C59.8312 62.4781 59.8421 62.4825 59.85 62.4905C59.858 62.4985 59.8625 62.5093 59.8625 62.5206V64.2461C59.8625 64.2574 59.858 64.2682 59.85 64.2761C59.8421 64.2841 59.8312 64.2886 59.82 64.2886H54.9446C54.9334 64.2886 54.9226 64.2931 54.9146 64.301C54.9066 64.309 54.9021 64.3198 54.9021 64.3311V66.705C54.9021 66.7163 54.9066 66.7271 54.9146 66.7351C54.9226 66.743 54.9334 66.7475 54.9446 66.7475H59.2424C59.2537 66.7475 59.2645 66.752 59.2725 66.76C59.2805 66.7679 59.285 66.7787 59.285 66.79Z" fill="white"/>
<path d="M68.7803 62.4781H70.8577C70.867 62.478 70.8762 62.4804 70.8842 62.485C70.8923 62.4896 70.8989 62.4963 70.9035 62.5044C70.9081 62.5125 70.9104 62.5216 70.9103 62.5309C70.9101 62.5402 70.9075 62.5493 70.9026 62.5572L67.2497 68.6254C67.245 68.6333 67.2426 68.6422 67.2426 68.6513V71.9335C67.2426 71.9472 67.2371 71.9605 67.2273 71.9702C67.2176 71.9799 67.2044 71.9854 67.1906 71.9854H65.0671C65.0533 71.9854 65.0401 71.9799 65.0304 71.9702C65.0206 71.9605 65.0151 71.9472 65.0151 71.9335V68.6183C65.0151 68.6091 65.0126 68.6002 65.008 68.5923L61.3846 62.5607C61.3798 62.5528 61.3771 62.5437 61.377 62.5345C61.3768 62.5252 61.3791 62.516 61.3837 62.5079C61.3883 62.4999 61.395 62.4932 61.403 62.4885C61.4111 62.4839 61.4202 62.4815 61.4295 62.4816H63.6758C63.6848 62.4815 63.6937 62.4837 63.7015 62.4881C63.7094 62.4924 63.716 62.4987 63.7207 62.5064L66.1796 66.5999C66.1842 66.6077 66.1908 66.6142 66.1986 66.6188C66.2065 66.6233 66.2154 66.6257 66.2245 66.6257C66.2336 66.6257 66.2425 66.6233 66.2504 66.6188C66.2583 66.6142 66.2648 66.6077 66.2694 66.5999L68.7354 62.5029C68.7401 62.4952 68.7467 62.4889 68.7546 62.4845C68.7624 62.4802 68.7713 62.478 68.7803 62.4781Z" fill="white"/>
<path d="M86.429 71.0229C86.429 71.0733 86.4542 71.0984 86.5046 71.0984L92.0933 71.0961C92.1024 71.0961 92.1111 71.0997 92.1175 71.1061C92.1239 71.1125 92.1275 71.1213 92.1275 71.1303L92.1311 71.9405C92.1311 71.9712 92.1157 71.9866 92.085 71.9866L85.5421 71.989C85.5061 71.989 85.4715 71.9746 85.446 71.9492C85.4206 71.9237 85.4063 71.8892 85.4062 71.8531V62.5395C85.4062 62.5235 85.4126 62.5082 85.4239 62.4969C85.4352 62.4856 85.4505 62.4792 85.4665 62.4792L91.8807 62.4769C91.8923 62.4769 91.9034 62.4816 91.9116 62.49C91.9198 62.4984 91.9244 62.5099 91.9244 62.5218V63.3296C91.9244 63.3409 91.9199 63.3517 91.9119 63.3597C91.904 63.3676 91.8931 63.3721 91.8819 63.3721L86.5058 63.3733C86.4562 63.3733 86.4314 63.3981 86.4314 63.4477L86.429 66.6377C86.429 66.6612 86.4384 66.6837 86.455 66.7003C86.4716 66.7169 86.4941 66.7263 86.5176 66.7263L91.2831 66.7239C91.3146 66.7239 91.3303 66.7396 91.3303 66.7711L91.3327 67.5742C91.3327 67.5852 91.3283 67.5957 91.3206 67.6035C91.3128 67.6112 91.3023 67.6156 91.2914 67.6156L86.4987 67.612C86.4899 67.612 86.4811 67.6138 86.4729 67.6172C86.4648 67.6207 86.4574 67.6257 86.4511 67.6321C86.4449 67.6385 86.4399 67.646 86.4365 67.6543C86.4331 67.6626 86.4314 67.6715 86.4314 67.6805L86.429 71.0229Z" fill="white"/>
<path d="M102.522 71.1681V71.9145C102.522 71.9337 102.515 71.952 102.501 71.9655C102.488 71.979 102.47 71.9866 102.45 71.9866H95.8709C95.8518 71.9866 95.8334 71.979 95.8199 71.9655C95.8064 71.952 95.7988 71.9337 95.7988 71.9145V62.5513C95.7988 62.5418 95.8007 62.5325 95.8043 62.5237C95.8079 62.515 95.8132 62.507 95.8199 62.5003C95.8266 62.4937 95.8346 62.4884 95.8433 62.4847C95.852 62.4811 95.8614 62.4792 95.8709 62.4792H102.246C102.256 62.4792 102.265 62.4811 102.274 62.4847C102.282 62.4884 102.29 62.4937 102.297 62.5003C102.304 62.507 102.309 62.515 102.313 62.5237C102.316 62.5325 102.318 62.5418 102.318 62.5513V63.3013C102.318 63.3204 102.311 63.3387 102.297 63.3522C102.284 63.3657 102.265 63.3733 102.246 63.3733H96.8948C96.8757 63.3733 96.8574 63.3809 96.8439 63.3944C96.8304 63.4079 96.8228 63.4262 96.8228 63.4453V66.6519C96.8228 66.671 96.8304 66.6893 96.8439 66.7028C96.8574 66.7163 96.8757 66.7239 96.8948 66.7239H101.653C101.663 66.7239 101.672 66.7258 101.681 66.7294C101.69 66.733 101.697 66.7383 101.704 66.745C101.711 66.7517 101.716 66.7596 101.72 66.7684C101.723 66.7771 101.725 66.7865 101.725 66.7959V67.5412C101.725 67.5603 101.718 67.5786 101.704 67.5921C101.691 67.6056 101.672 67.6132 101.653 67.6132H96.8937C96.8842 67.6132 96.8748 67.6151 96.8661 67.6187C96.8573 67.6223 96.8494 67.6276 96.8427 67.6343C96.836 67.641 96.8307 67.6489 96.8271 67.6577C96.8235 67.6664 96.8216 67.6758 96.8216 67.6853V71.024C96.8216 71.0431 96.8292 71.0615 96.8427 71.075C96.8562 71.0885 96.8745 71.0961 96.8937 71.0961H102.45C102.47 71.0961 102.488 71.1037 102.501 71.1172C102.515 71.1307 102.522 71.149 102.522 71.1681Z" fill="white"/>
<path d="M113.951 62.5525L109.874 66.7499C109.866 66.7578 109.862 66.7682 109.862 66.7792C109.861 66.7901 109.865 66.8007 109.873 66.8089L114.189 71.9145C114.195 71.921 114.198 71.9288 114.199 71.9372C114.2 71.9456 114.199 71.954 114.195 71.9617C114.192 71.9693 114.186 71.9757 114.179 71.9801C114.172 71.9845 114.163 71.9868 114.155 71.9866H113.026C113.02 71.9866 113.013 71.9852 113.008 71.9825C113.002 71.9799 112.997 71.976 112.993 71.9712L109.182 67.579C109.178 67.5745 109.173 67.5709 109.167 67.5685C109.162 67.566 109.156 67.5647 109.15 67.5645C109.144 67.5644 109.138 67.5656 109.133 67.5678C109.127 67.5701 109.122 67.5735 109.118 67.5778L107.248 69.5017C107.24 69.51 107.236 69.521 107.236 69.5324V71.9417C107.236 71.9533 107.232 71.9644 107.224 71.9726C107.215 71.9808 107.204 71.9854 107.193 71.9854H106.259C106.247 71.9854 106.236 71.9808 106.228 71.9726C106.219 71.9644 106.215 71.9533 106.215 71.9417V62.5206C106.215 62.5148 106.216 62.5092 106.218 62.5039C106.22 62.4986 106.224 62.4937 106.228 62.4897C106.232 62.4856 106.237 62.4824 106.242 62.4802C106.247 62.478 106.253 62.4769 106.259 62.4769H107.192C107.203 62.4769 107.214 62.4815 107.222 62.4897C107.231 62.4979 107.235 62.509 107.235 62.5206V68.0726C107.235 68.0815 107.238 68.0902 107.242 68.0975C107.247 68.1049 107.254 68.1106 107.263 68.114C107.271 68.1173 107.28 68.1181 107.288 68.1162C107.297 68.1143 107.305 68.1098 107.311 68.1033L112.761 62.491C112.765 62.4868 112.77 62.4835 112.776 62.4813C112.781 62.4791 112.787 62.478 112.793 62.4781H113.919C113.927 62.4779 113.936 62.4803 113.943 62.485C113.951 62.4898 113.956 62.4966 113.96 62.5045C113.963 62.5125 113.964 62.5213 113.962 62.5299C113.961 62.5384 113.957 62.5463 113.951 62.5525Z" fill="white"/>
</svg>
