<svg id="Layer_1" data-name="Layer 1" xmlns="http://www.w3.org/2000/svg" viewBox="0 0 631.5 108.2" xmlns:xlink="http://www.w3.org/1999/xlink">
 <defs>
  <style>
   .cls-1{fill:#fff;}
  </style>
 </defs>
 <path class="cls-1" d="M705.25,283.8c0-2.4-1.7-4-4.5-4l-5.5.1.1,12.2h3v-4.2h1.8l2.6,4.2h3.5l-3.1-4.7A4.08,4.08,0,0,0,705.25,283.8Zm-5.1,1.6h-1.9v-3.1h2.2a1.55,1.55,0,0,1,1.7,1.3v.1A1.77,1.77,0,0,1,700.15,285.4Zm-443.6,54.8c-5.1,0-8.6-4-8.6-9.9V303.4h21v-19H248l-.2-21.8h-23.2l.2,72.6c0,14.7,9.8,24.7,24.2,24.7,7.6,0,14.8-1.1,20.5-3.7V337.7A27.32,27.32,0,0,1,256.55,340.2Zm55.4-57c-21.6,0-38.2,16.8-38.2,39.1,0,22.1,16.6,37.5,39.5,37.5,12.9,0,25-4.6,32.4-14.1l-17.8-8.1c-3.6,3.3-9.1,4.6-14,4.6-8,0-16-4.1-17.1-12.5h53.1a35.74,35.74,0,0,0,1.2-9.2C351.05,297.6,334.35,283.2,312,283.2ZM296.75,315c.7-10,7.9-14.6,15.8-14.6,8.9,0,15.6,5,15.6,13.6v1Zm-94.2,25.2c-5.1,0-8.6-4-8.6-9.9V303.4h21v-19H194l-.2-21.8h-23.2l.2,72.6c0,14.7,9.8,24.7,24.2,24.7,7.6,0,14.8-1.1,20.5-3.7V337.7A27.09,27.09,0,0,1,202.55,340.2Zm-81.5-57c-19.9,0-40.8,13.1-40.8,39.5,0,22,14.8,37.4,33.5,37.4,10.7,0,18.8-4.3,24.1-11.9l.7,10.6H161V323.6C161,296.8,141.25,283.2,121.05,283.2Zm0,56.6c-10.1,0-17.4-7.5-17.4-18.1s7.2-18.1,17.4-18.1c9.4,0,17.2,8.2,17.2,18.1S130.45,339.8,121.05,339.8Zm578.6-65.5c-7.3.1-12,4.8-11.9,11.8s4.9,11.6,12.2,11.5c7.1-.1,11.9-4.8,11.8-11.9S706.85,274.2,699.65,274.3Zm.3,21.3c-5.7.1-9.6-3.7-9.6-9.5s3.7-9.7,9.4-9.8,9.5,3.7,9.6,9.6C709.35,291.6,705.55,295.5,700,295.6Zm-113.7-11.1-16.2,47-16.4-47h-25.2l30.2,74.2h22.6l30.2-74.2Zm60.1-1.3c-21.6,0-38.2,16.8-38.2,39.1,0,22.1,16.6,37.5,39.5,37.5,12.9,0,25-4.6,32.4-14.1l-17.8-8.1c-3.6,3.3-9.1,4.6-14,4.6-8,0-16-4.1-17.1-12.5h53.1a35.74,35.74,0,0,0,1.2-9.2C685.45,297.6,668.75,283.2,646.35,283.2Zm16.2,31.8h-31.4c.7-10,7.9-14.6,15.8-14.6,8.9,0,15.6,5,15.6,13.6Zm-152-63.1c-8.2,0-14.4,5.5-14.4,13.2s6.2,13.4,14.4,13.4,14.4-5.6,14.4-13.4S518.85,251.9,510.55,251.9Zm-105.3,31.2a27.17,27.17,0,0,0-23.5,12.8l-.8-11.4h-22.4v74.2h23.2V319.8c.5-9.3,8-16.4,16.2-16.4,9.2,0,13.4,6.9,13.4,15.6v39.6h23.1V315.4C434.45,296.6,423,283.1,405.25,283.1Zm70.8,57.1c-5.1,0-8.6-4-8.6-9.9V303.4h21v-19h-21l-.2-21.8h-23.2l.2,72.6c0,14.7,9.8,24.7,24.2,24.7,7.6,0,14.8-1.1,20.5-3.7V337.7A27.09,27.09,0,0,1,476.05,340.2Zm22.8-55.7v74.2h23.4V284.5A21.18,21.18,0,0,1,498.85,284.5Z" transform="translate(-80.25 -251.9)">
 </path>
</svg>