<svg class="sc-87b1da79-0 kllSJL" width="91" height="22" viewBox="0 0 91 22" fill="none" xmlns="http://www.w3.org/2000/svg"><path d="M82.2782 17.9579C80.1693 17.9579 78.5256 16.23 78.5256 14.1318C78.5256 12.0337 80.1693 10.3057 82.2782 10.3057C84.3871 10.3057 86.0308 12.0337 86.0308 14.1318C86.0308 16.23 84.3871 17.9579 82.2782 17.9579ZM81.2238 22C83.0225 22 85.3176 21.3212 86.5891 18.6676L86.7131 18.7293C86.1549 20.1795 86.1549 21.0435 86.1549 21.2595V21.5989H90.6828V6.6648H86.1549V7.00421C86.1549 7.2202 86.1549 8.08415 86.7131 9.53436L86.5891 9.59607C85.3176 6.9425 83.0225 6.26367 81.2238 6.26367C76.9129 6.26367 73.8736 9.65778 73.8736 14.1318C73.8736 18.6059 76.9129 22 81.2238 22ZM65.9963 6.26367C63.9494 6.26367 62.3367 6.97335 61.0341 9.59607L60.9101 9.53436C61.4683 8.08415 61.4683 7.2202 61.4683 7.00421V6.6648H56.9404V21.5989H61.5924V13.7307C61.5924 11.6634 62.8019 10.3675 64.7557 10.3675C66.7096 10.3675 67.671 11.4783 67.671 13.6999V21.5989H72.323V12.0954C72.323 8.70126 69.6558 6.26367 65.9963 6.26367ZM50.2105 9.59607L50.0864 9.53436C50.6447 8.08415 50.6447 7.2202 50.6447 7.00421V6.6648H46.1168V21.5989H50.7687L50.7998 14.4095C50.7998 12.3114 51.9162 11.0463 53.746 11.0463C54.2422 11.0463 54.6454 11.108 55.1106 11.2314V6.6648C53.0637 6.23282 51.2339 7.00421 50.2105 9.59607ZM35.4172 17.9579C33.3083 17.9579 31.6646 16.23 31.6646 14.1318C31.6646 12.0337 33.3083 10.3057 35.4172 10.3057C37.5261 10.3057 39.1698 12.0337 39.1698 14.1318C39.1698 16.23 37.5261 17.9579 35.4172 17.9579ZM34.3627 22C36.1615 22 38.4565 21.3212 39.728 18.6676L39.8521 18.7293C39.2938 20.1795 39.2938 21.0435 39.2938 21.2595V21.5989H43.8218V6.6648H39.2938V7.00421C39.2938 7.2202 39.2938 8.08415 39.8521 9.53436L39.728 9.59607C38.4565 6.9425 36.1615 6.26367 34.3627 6.26367C30.0519 6.26367 27.0126 9.65778 27.0126 14.1318C27.0126 18.6059 30.0519 22 34.3627 22ZM20.5308 21.5989H25.1828V0H20.5308V21.5989ZM17.1193 0H12.3743C12.3743 3.85694 9.98628 7.31276 6.35772 9.78121L4.93111 10.7686V0H0V21.5989H4.93111V10.892L13.0876 21.5989H19.1042L11.2578 11.3548C14.8243 8.79383 17.1503 4.81346 17.1193 0Z" fill="#ffffff"></path></svg>