<svg width="400" height="80" viewBox="0 0 400 80" fill="none" xmlns="http://www.w3.org/2000/svg" xmlns:xlink="http://www.w3.org/1999/xlink">
 <g clip-path="url(#clip0)">
  <path d="M39.5343 79.0686C61.3685 79.0686 79.0686 61.3685 79.0686 39.5343C79.0686 17.7001 61.3685 0 39.5343 0C17.7001 0 0 17.7001 0 39.5343C0 61.3685 17.7001 79.0686 39.5343 79.0686Z" fill="#FFFBF6">
  </path>
  <path d="M43.308 55.1946H23.7113C23.6502 55.1957 23.5896 55.1832 23.5339 55.1579C23.4783 55.1326 23.429 55.0952 23.3896 55.0484C23.3503 55.0016 23.3219 54.9466 23.3065 54.8875C23.2911 54.8283 23.2891 54.7665 23.3006 54.7064L27.1208 35.0865C27.1363 35.0156 27.1719 34.9506 27.2233 34.8992C27.2746 34.8479 27.3397 34.8123 27.4106 34.7968C27.4816 34.7813 27.5555 34.7865 27.6236 34.8118C27.6917 34.837 27.7512 34.8813 27.7949 34.9393L43.6102 54.5592C43.647 54.6187 43.6684 54.6865 43.6723 54.7564C43.6761 54.8263 43.6624 54.8961 43.6324 54.9593C43.6023 55.0226 43.5568 55.0772 43.5002 55.1183C43.4435 55.1594 43.3774 55.1857 43.308 55.1946Z" fill="#3901F1">
  </path>
  <path d="M23.3471 25.571H42.9438C43.0049 25.5699 43.0655 25.5825 43.1212 25.6078C43.1768 25.6331 43.2261 25.6705 43.2654 25.7172C43.3048 25.764 43.3332 25.819 43.3486 25.8781C43.364 25.9373 43.366 25.9991 43.3545 26.0592L39.5576 45.7178C39.5404 45.7875 39.5043 45.8509 39.4532 45.9012C39.4021 45.9515 39.3381 45.9867 39.2682 46.0027C39.1983 46.0188 39.1253 46.0152 39.0574 45.9922C38.9895 45.9693 38.9293 45.928 38.8834 45.8728L23.0449 26.1832C22.9939 26.1291 22.9607 26.0607 22.9497 25.9873C22.9387 25.9138 22.9504 25.8387 22.9833 25.7721C23.0162 25.7054 23.0687 25.6505 23.1337 25.6145C23.1987 25.5786 23.2732 25.5634 23.3471 25.571Z" fill="#3901F1">
  </path>
  <path d="M45.3149 25.571C45.2284 25.5728 45.1447 25.6024 45.0764 25.6554C45.008 25.7084 44.9585 25.7821 44.9352 25.8654C44.7288 27.5019 44.8704 29.1636 45.3509 30.7415C45.8314 32.3194 46.6399 33.778 47.7234 35.0217C48.8068 36.2654 50.1409 37.2661 51.6381 37.9583C53.1353 38.6505 54.7618 39.0186 56.4112 39.0384H56.8218C56.9103 39.0432 56.9974 39.015 57.0662 38.9591C57.1349 38.9032 57.1804 38.8237 57.1938 38.7362L59.8284 25.9894C59.8326 25.9326 59.8252 25.8754 59.8065 25.8216C59.7879 25.7677 59.7584 25.7182 59.72 25.6761C59.6815 25.634 59.6349 25.6002 59.5829 25.5768C59.5309 25.5534 59.4747 25.5409 59.4177 25.54L45.3149 25.571Z" fill="#3901F1">
  </path>
  <path d="M112.171 22.8589H126.259C126.917 22.8589 127.359 23.2231 127.212 23.9592L126.437 28.5078C129.219 24.4706 133.256 22.053 137.363 22.053C139.337 22.0411 141.254 22.7148 142.787 23.9592C143.445 24.6179 143.445 24.9821 143.004 25.6484L138.897 31.4368C138.386 32.2117 138.014 32.1032 137.208 31.7312C136.288 31.3087 135.29 31.0843 134.279 31.0726C129.358 31.0726 125.251 34.3038 123.345 44.0596L120.486 58.7823C120.436 59.1005 120.278 59.3917 120.037 59.6064C119.797 59.8211 119.49 59.946 119.169 59.9601H111.66C111.514 59.9627 111.369 59.9319 111.237 59.8702C111.104 59.8085 110.988 59.7174 110.896 59.6038C110.804 59.4902 110.739 59.3572 110.706 59.2149C110.674 59.0725 110.674 58.9246 110.707 58.7823L116.278 30.4682L111.582 23.8817C111.218 23.3703 111.513 22.8589 112.171 22.8589Z" fill="#FFFBF6">
  </path>
  <path d="M139.168 41.1228C141.074 29.6081 149.513 22.053 160.508 22.053C171.659 22.053 176.943 30.9254 175.332 40.6114C174.96 43.1065 174.084 45.0824 172.031 45.0824H148.265C148.482 50.5066 152.225 53.0792 157.215 53.0792C160.331 53.004 163.359 52.0358 165.94 50.2896C166.529 49.8479 167.188 49.631 167.629 50.2896L170.341 54.5437C170.783 55.2023 170.558 55.644 169.9 56.2329C166.382 59.4564 160.655 60.9287 155.448 60.9287C143.717 60.9287 137.332 52.2733 139.168 41.1228ZM166.824 38.6277C167.188 32.8316 163.228 30.414 159.408 30.414C154.425 30.414 150.536 33.7847 149.071 38.6277H166.824Z" fill="#FFFBF6">
  </path>
  <path d="M210.829 59.0923L219.353 15.6991L215.16 10.0734C215.113 9.97702 215.091 9.86965 215.098 9.76217C215.104 9.65469 215.14 9.55092 215.199 9.46131C215.259 9.37171 215.341 9.29945 215.438 9.25183C215.534 9.2042 215.642 9.18291 215.749 9.19008H228.806C229.534 9.19008 229.906 9.63176 229.759 10.2904L225.939 29.4454C228.876 25.0441 233.277 22.0376 238.415 22.0376C246.628 22.0376 251.324 29.0735 249.565 37.7289L245.311 58.7823C245.262 59.1024 245.103 59.3954 244.861 59.6105C244.619 59.8256 244.31 59.9493 243.986 59.9601H236.284C236.133 59.9814 235.979 59.9632 235.837 59.9073C235.695 59.8514 235.57 59.7597 235.474 59.6411C235.378 59.5225 235.314 59.381 235.289 59.2305C235.264 59.08 235.278 58.9256 235.331 58.7823L239.143 39.7823C240.174 34.6526 238.779 31.4988 235.625 31.4988C229.759 31.4988 225.133 38.1008 223.157 47.4148L220.662 59.0768C220.63 59.3116 220.518 59.5281 220.344 59.6892C220.17 59.8504 219.946 59.9461 219.709 59.9601H211.542C211.437 59.9525 211.335 59.9237 211.242 59.8754C211.148 59.8271 211.066 59.7603 210.999 59.6791C210.932 59.5979 210.883 59.5041 210.854 59.4032C210.824 59.3023 210.816 59.1965 210.829 59.0923Z" fill="#FFFBF6">
  </path>
  <path d="M252.2 41.5645C254.106 29.3137 262.769 22.053 272.889 22.053C278.243 22.053 282.42 24.4707 284.039 28.5078L284.915 24.0212C284.958 23.6864 285.125 23.38 285.383 23.1631C285.642 22.9462 285.973 22.8348 286.31 22.8512H293.423C293.575 22.8266 293.73 22.8422 293.873 22.8963C294.016 22.9505 294.143 23.0413 294.24 23.1598C294.338 23.2782 294.402 23.4201 294.427 23.5713C294.452 23.7225 294.438 23.8776 294.384 24.0212L287.557 58.8908C287.506 59.2159 287.334 59.5097 287.075 59.7136C286.817 59.9175 286.491 60.0166 286.163 59.9911H278.956C278.29 59.9911 277.926 59.6191 278.073 58.8908L278.732 55.2953C277.254 57.074 275.404 58.5076 273.313 59.4955C271.222 60.4834 268.94 61.0017 266.628 61.0139C256.314 60.9984 250.518 52.4205 252.2 41.5645ZM269.588 52.1261C275.531 52.1261 279.933 47.1359 280.808 41.2778C281.684 35.4197 278.538 30.9951 273.036 30.9951C267.163 30.9951 262.909 35.7606 261.955 41.332C261.002 46.9034 263.869 52.1261 269.588 52.1261Z" fill="#FFFBF6">
  </path>
  <path d="M292.183 58.7977L299.103 23.812C299.25 23.2231 299.545 22.8589 299.986 22.8589H307.735C308.402 22.8589 308.836 23.2231 308.688 23.9592L307.913 28.5078C310.703 24.4706 314.74 22.053 318.847 22.053C320.821 22.0411 322.738 22.7148 324.271 23.9592C324.938 24.6179 324.938 24.9821 324.496 25.6407L320.389 31.4368C319.87 32.2117 319.506 32.1032 318.7 31.7312C317.778 31.3088 316.777 31.0844 315.763 31.0726C310.85 31.0726 306.743 34.3038 304.837 44.0596L301.978 58.7823C301.93 59.104 301.771 59.3989 301.529 59.6166C301.288 59.8343 300.978 59.9612 300.653 59.9756H293.137C292.99 59.9782 292.846 59.9474 292.713 59.8857C292.581 59.824 292.464 59.7328 292.372 59.6193C292.281 59.5057 292.216 59.3727 292.183 59.2304C292.15 59.088 292.15 58.9401 292.183 58.7977Z" fill="#FFFBF6">
  </path>
  <path d="M317.778 70.6069C317.578 70.4232 317.453 70.1726 317.426 69.9026C317.399 69.6327 317.471 69.3622 317.63 69.1424L321.079 63.7183C321.451 63.1293 322.032 62.9434 322.473 63.3463C325.852 65.4772 329.145 66.7945 333.182 66.7945C340.226 66.7945 346.092 63.9352 348.145 54.474C344.271 58.1391 340.668 59.8981 335.236 59.8981C324.604 59.8981 319.025 50.9483 320.784 40.9756C322.768 29.6778 331.206 22.053 341.838 22.053C347.703 22.053 351.741 25.354 352.988 28.0661L353.871 24.0212C353.893 23.7046 354.034 23.4079 354.265 23.1908C354.497 22.9738 354.802 22.8524 355.119 22.8512H362.302C362.453 22.8282 362.607 22.8449 362.749 22.8997C362.891 22.9545 363.017 23.0456 363.113 23.1637C363.209 23.2819 363.273 23.4232 363.298 23.5736C363.323 23.724 363.308 23.8783 363.255 24.0212L357.219 54.6909C354.6 68.0421 345.363 75.0082 332.818 75.0082C327.533 75.0082 321.575 73.6909 317.778 70.6069ZM338.025 51.3202C343.969 51.3202 348.37 46.5469 349.245 40.9058C350.121 35.2647 346.975 30.9951 341.473 30.9951C335.608 30.9951 331.354 35.6444 330.393 40.9678C329.432 46.2912 332.307 51.3202 338.025 51.3202Z" fill="#FFFBF6">
  </path>
  <path d="M363.55 41.1228C365.456 29.6081 373.894 22.053 384.898 22.053C396.048 22.053 401.325 30.9254 399.713 40.6114C399.349 43.1065 398.466 45.0824 396.412 45.0824H372.647C372.864 50.5066 376.606 53.0792 381.597 53.0792C384.713 53.0088 387.743 52.0401 390.322 50.2896C390.911 49.8479 391.569 49.631 392.011 50.2896L394.723 54.5437C395.165 55.2023 394.948 55.644 394.289 56.2329C390.763 59.4564 385.045 60.9287 379.838 60.9287C368.067 60.9287 361.721 52.2733 363.55 41.1228ZM391.205 38.6277C391.569 32.8316 387.61 30.414 383.797 30.414C378.807 30.414 374.925 33.7847 373.453 38.6277H391.205Z" fill="#FFFBF6">
  </path>
  <path d="M194.425 60.9984C197.036 61.0569 199.633 60.5944 202.064 59.6378C204.495 58.6812 206.711 57.2497 208.582 55.4271C208.727 55.3299 208.85 55.2038 208.944 55.0569C209.038 54.9099 209.101 54.7452 209.129 54.5729C209.156 54.4006 209.148 54.2245 209.105 54.0555C209.061 53.8865 208.984 53.7282 208.876 53.5906L204.839 49.1195C204.749 49.0176 204.639 48.9346 204.516 48.8754C204.393 48.8162 204.259 48.782 204.123 48.7748C203.987 48.7676 203.851 48.7875 203.722 48.8334C203.594 48.8793 203.475 48.9502 203.375 49.0421C201.178 50.7253 198.508 51.6742 195.742 51.7541C189.954 51.7541 186.722 47.2133 187.459 41.487C188.195 35.7606 192.666 31.2896 198.307 31.2896C201.406 31.2896 203.367 32.3899 205.568 34.5906C206.156 35.1795 206.521 35.1795 207.179 34.6681L212.394 30.2203C212.52 30.1423 212.629 30.0389 212.713 29.9166C212.797 29.7944 212.855 29.656 212.883 29.5102C212.91 29.3644 212.907 29.2145 212.874 29.07C212.841 28.9254 212.777 28.7894 212.689 28.6705C209.535 24.1917 204.622 22.0685 199.19 22.0685C188.264 22.0685 179.384 30.2048 177.92 40.9911C176.308 52.6917 184.08 60.9984 194.425 60.9984Z" fill="#FFFBF6">
  </path>
 </g>
 <defs>
  <clipPath id="clip0">
   <rect width="400" height="79.0763" fill="white">
   </rect>
  </clipPath>
 </defs>
</svg>