<svg xmlns="http://www.w3.org/2000/svg" viewBox="0 0 167 56" fill="none" role="presentation"><g id="logo"><path id="Vector" d="M166.885 0.00683594V41.8314H157.371V0.00683594H166.885Z" fill="white"></path><path id="Vector_2" d="M153.861 14.1101V41.8892H145.401V39.4985C144.334 40.5379 143.111 41.3305 141.753 41.8892C140.389 42.4804 138.914 42.7792 137.329 42.7792C135.337 42.7792 133.494 42.4089 131.8 41.6683C130.105 40.8887 128.63 39.8363 127.376 38.5045C126.121 37.1727 125.125 35.6136 124.388 33.84C123.689 32.0275 123.34 30.0785 123.34 28.0061C123.34 25.9338 123.689 24.0043 124.388 22.2307C125.125 20.4182 126.121 18.8396 127.376 17.5078C128.63 16.176 130.105 15.1365 131.8 14.3959C133.494 13.6164 135.337 13.2266 137.329 13.2266C138.914 13.2266 140.389 13.5254 141.753 14.1166C143.118 14.6753 144.334 15.4679 145.401 16.5073V14.1166H153.861V14.1101ZM138.869 34.3338C140.602 34.3338 142.018 33.7426 143.124 32.5537C144.269 31.3713 144.838 29.8512 144.838 27.9996C144.838 26.1481 144.269 24.628 143.124 23.4456C142.018 22.2632 140.596 21.6655 138.869 21.6655C137.142 21.6655 135.7 22.2567 134.555 23.4456C133.449 24.628 132.893 26.1481 132.893 27.9996C132.893 29.8512 133.449 31.3713 134.555 32.5537C135.7 33.7361 137.135 34.3338 138.869 34.3338Z" fill="white"></path><path id="Vector_3" d="M109.774 0C112.284 0 114.418 0.350812 116.19 1.05244C117.962 1.75406 119.456 2.73504 120.672 3.99536C121.927 5.29466 122.903 6.77587 123.602 8.43898C124.3 10.1086 124.65 11.9016 124.65 13.8311C124.65 15.7606 124.3 17.5536 123.602 19.2232C122.903 20.8928 121.927 22.374 120.672 23.6668C119.456 24.9272 117.962 25.9081 116.19 26.6097C114.418 27.3114 112.284 27.6622 109.774 27.6622H105.182V41.8831H95.5V0H109.768H109.774ZM108.39 19.0543C109.684 19.0543 110.673 18.9244 111.378 18.6645C112.115 18.3657 112.723 17.9954 113.202 17.5536C114.198 16.6246 114.696 15.3838 114.696 13.8311C114.696 12.2784 114.198 11.0376 113.202 10.1086C112.723 9.66682 112.115 9.30951 111.378 9.05615C110.68 8.75731 109.684 8.61439 108.39 8.61439H105.182V19.0608H108.39V19.0543Z" fill="white"></path><path id="Vector_4" d="M59.8424 14.1104H70.3523L77.4862 27.4412H77.5961L83.9538 14.1104H93.6876L72.8359 55.9999H63.1538L72.6678 36.8352L59.8359 14.1104H59.8424Z" fill="white"></path><path id="Vector_5" d="M57.9584 14.1101V41.8892H49.4987V39.4985C48.4315 40.5379 47.2091 41.3305 45.8509 41.8892C44.4862 42.4804 43.0116 42.7792 41.427 42.7792C39.435 42.7792 37.5917 42.4089 35.8972 41.6683C34.2027 40.8887 32.728 39.8363 31.4733 38.5045C30.2186 37.1727 29.2226 35.6136 28.4853 33.84C27.7868 32.0275 27.4375 30.0785 27.4375 28.0061C27.4375 25.9338 27.7868 24.0043 28.4853 22.2307C29.2226 20.4182 30.2186 18.8396 31.4733 17.5078C32.728 16.176 34.2027 15.1365 35.8972 14.3959C37.5917 13.6164 39.435 13.2266 41.427 13.2266C43.0116 13.2266 44.4862 13.5254 45.8509 14.1166C47.2156 14.6753 48.4315 15.4679 49.4987 16.5073V14.1166H57.9584V14.1101ZM42.9663 34.3338C44.6997 34.3338 46.1161 33.7426 47.2285 32.5537C48.3733 31.3713 48.9424 29.8512 48.9424 27.9996C48.9424 26.1481 48.3733 24.628 47.2285 23.4456C46.1226 22.2632 44.6997 21.6655 42.9663 21.6655C41.233 21.6655 39.7972 22.2567 38.6524 23.4456C37.5464 24.628 36.9902 26.1481 36.9902 27.9996C36.9902 29.8512 37.5464 31.3713 38.6524 32.5537C39.7972 33.7361 41.233 34.3338 42.9663 34.3338Z" fill="white"></path><path id="Vector_6" d="M14.2676 0C16.7771 0 18.9114 0.350812 20.6836 1.05244C22.4557 1.75406 23.9497 2.73504 25.1656 3.99536C26.4204 5.29466 27.397 6.77587 28.0955 8.43898C28.794 10.1086 29.1432 11.9016 29.1432 13.8311C29.1432 15.7606 28.794 17.5536 28.0955 19.2232C27.397 20.8928 26.4204 22.374 25.1656 23.6668C23.9497 24.9272 22.4557 25.9081 20.6836 26.6097C18.9114 27.3114 16.7771 27.6622 14.2676 27.6622H9.67561V41.8831H0V0H14.2676ZM12.89 19.0543C14.1836 19.0543 15.1731 18.9244 15.8781 18.6645C16.6154 18.3657 17.2234 17.9954 17.702 17.5536C18.698 16.6246 19.196 15.3838 19.196 13.8311C19.196 12.2784 18.698 11.0376 17.702 10.1086C17.2234 9.66682 16.6154 9.30951 15.8781 9.05615C15.1796 8.75731 14.1836 8.61439 12.89 8.61439H9.68208V19.0608H12.89V19.0543Z" fill="white"></path></g></svg>