<svg version="1.1" id="Layer_1" xmlns:x="ns_extend;" xmlns:i="ns_ai;" xmlns:graph="ns_graphs;" xmlns="http://www.w3.org/2000/svg" xmlns:xlink="http://www.w3.org/1999/xlink" x="0px" y="0px" viewBox="0 0 200 50" style="enable-background:new 0 0 200 50;" xml:space="preserve">
 <style type="text/css">
  .st0{fill:#FFFFFF;}
 </style>
 <metadata>
  <sfw xmlns="ns_sfw;">
   <slices>
   </slices>
   <sliceSourceBounds bottomLeftOrigin="true" height="50" width="200" x="-60" y="0">
   </sliceSourceBounds>
  </sfw>
 </metadata>
 <g>
  <path class="st0" d="M4.2,20.8L0,25l4.2,4.2L8.3,25L4.2,20.8z">
  </path>
  <path class="st0" d="M9.4,15.6l-4.2,4.2L9.4,24l4.2-4.2L9.4,15.6z">
  </path>
  <path class="st0" d="M14.6,10.4l-4.2,4.2l4.2,4.2l4.2-4.2L14.6,10.4z">
  </path>
  <path class="st0" d="M25,0l-4.2,4.2L25,8.3l4.2-4.2L25,0z">
  </path>
  <path class="st0" d="M19.8,5.2l-4.2,4.2l4.2,4.2L24,9.4L19.8,5.2z">
  </path>
  <path class="st0" d="M41.7,25l4.2,4.2L50,25l-4.2-4.2L41.7,25z">
  </path>
  <path class="st0" d="M36.5,19.8l4.2,4.2l4.2-4.2l-4.2-4.2L36.5,19.8z">
  </path>
  <path class="st0" d="M31.3,14.6l4.2,4.2l4.2-4.2l-4.2-4.2L31.3,14.6z">
  </path>
  <path class="st0" d="M26,9.4l4.2,4.2l4.2-4.2l-4.2-4.2L26,9.4z">
  </path>
  <path class="st0" d="M25,10.8l-4,4l4,4l4-4L25,10.8z">
  </path>
  <path class="st0" d="M19.8,16.5L16,20.2l3.8,3.8l3.8-3.8L19.8,16.5z">
  </path>
  <path class="st0" d="M30.2,16.5l-3.8,3.8l3.8,3.8l3.8-3.8L30.2,16.5z">
  </path>
  <path class="st0" d="M14.6,22.1L11,25.6l3.5,3.5l3.5-3.5L14.6,22.1z">
  </path>
  <path class="st0" d="M25,22.1l-3.5,3.5l3.5,3.5l3.5-3.5L25,22.1z">
  </path>
  <path class="st0" d="M35.4,22.1l-3.5,3.5l3.5,3.5l3.5-3.5L35.4,22.1z">
  </path>
  <path class="st0" d="M9.4,27.7L6,31l3.3,3.3l3.3-3.3L9.4,27.7z">
  </path>
  <path class="st0" d="M19.8,27.7L16.5,31l3.3,3.3l3.3-3.3L19.8,27.7z">
  </path>
  <path class="st0" d="M30.2,27.7L26.9,31l3.3,3.3l3.3-3.3L30.2,27.7z">
  </path>
  <path class="st0" d="M40.6,27.7L37.3,31l3.3,3.3L44,31L40.6,27.7z">
  </path>
  <path class="st0" d="M14.6,33.8l-2.9,2.9l2.9,2.9l2.9-2.9L14.6,33.8z">
  </path>
  <path class="st0" d="M25,33.8l-2.9,2.9l2.9,2.9l2.9-2.9L25,33.8z">
  </path>
  <path class="st0" d="M35.4,33.8l-2.9,2.9l2.9,2.9l2.9-2.9L35.4,33.8z">
  </path>
  <path class="st0" d="M19.8,39.8l-2.5,2.5l2.5,2.5l2.5-2.5L19.8,39.8z">
  </path>
  <path class="st0" d="M30.2,39.8l-2.5,2.5l2.5,2.5l2.5-2.5L30.2,39.8z">
  </path>
  <path class="st0" d="M25,45.8l-2.1,2.1L25,50l2.1-2.1L25,45.8z">
  </path>
  <path class="st0" d="M66.6,30v7.8h-4.1V12.5c3.9,0,8,0,11.9,0c12.2,0,12.3,17.5,0,17.5L66.6,30L66.6,30z M66.6,26.3h7.8
		c6.8,0,6.7-10.1,0-10.1h-7.8V26.3z">
  </path>
  <path class="st0" d="M134.9,30.3c0.3,2.7,2.6,4.5,5.9,4.5c1.8,0,4.1-0.7,5.2-1.9l2.5,2.3c-1.9,2-5,3-7.8,3c-5.9,0-9.7-3.7-9.7-9.4
		c0-5.4,3.9-9.3,9.5-9.3c5.8,0,9.8,3.5,9.1,10.8L134.9,30.3L134.9,30.3z M146,27.1c-0.2-2.8-2.3-4.3-5.4-4.3c-2.8,0-5,1.5-5.6,4.3
		H146z">
  </path>
  <path class="st0" d="M153,37.8V12.6h18.1v3.9h-14v7.7h12v3.8h-12v9.8L153,37.8L153,37.8z">
  </path>
  <path class="st0" d="M196,20l-4.9,12.9l-5-12.9h-4l7,18.1l-0.5,1.2L186,46h4l1-2.7l0.1-0.2l1.5-3.9l0.5-1.2L200,20H196z">
  </path>
  <path class="st0" d="M178.7,12.6h-4.1v25.2h4.1V12.6z">
  </path>
  <path class="st0" d="M101.5,20v2.8c-1.1-2-3.6-3.2-6.2-3.2c-5.2,0-9.4,3.3-9.4,9.3c0,6.1,4,9.4,9.3,9.4c2.2,0,5-1.1,6.2-3.3v2.9
		h4.1V20H101.5z M95.6,34.8c-3.2,0-5.9-2.2-5.9-5.9c0-3.6,2.6-5.9,5.9-5.9C103.4,23,103.4,34.8,95.6,34.8z">
  </path>
  <path class="st0" d="M128.3,28.9c0-2.3-0.7-4.4-2.5-6.3l2.8-2.8l-2.9-2.9l-3.2,3.1c-1.2-0.5-2.6-0.7-3.8-0.7
		c-4.9,0-9.8,3.2-9.8,9.4c0,4.9,2.4,8.8,9.1,9.1c4.4,0.1,6.4,1.7,6.4,4.4c0,2.7-3,3.8-5.8,3.8c-3,0-5.9-1.6-5.8-4.5h-3.8
		c-0.1,5.2,3.6,8.3,9.5,8.3c4.8,0,9.7-2.6,9.7-7.6c0-2.2-1.1-4.8-4.8-6.1C126.8,35,128.3,32.3,128.3,28.9z M118.7,34.7
		c-1.5,0-2.8-0.4-3.9-1.2c-1.1-0.8-1.9-2.1-2.1-3.7c0-0.3-0.1-0.6-0.1-0.9c0-3.9,2.9-5.8,6-5.8c0.3,0,0.5,0,0.8,0
		c1.5,0.2,2.9,0.8,3.8,2c0.8,0.9,1.3,2.2,1.3,3.8C124.6,32.3,122,34.7,118.7,34.7z">
  </path>
 </g>
</svg>