<svg version="1.1" id="Layer_1" xmlns:x="ns_extend;" xmlns:i="ns_ai;" xmlns:graph="ns_graphs;" xmlns="http://www.w3.org/2000/svg" xmlns:xlink="http://www.w3.org/1999/xlink" x="0px" y="0px" viewBox="0 0 141.3 50" style="enable-background:new 0 0 141.3 50;" xml:space="preserve">
 <style type="text/css">
  .st0{fill-rule:evenodd;clip-rule:evenodd;fill:#FFFFFF;}
 </style>
 <metadata>
  <sfw xmlns="ns_sfw;">
   <slices>
   </slices>
   <sliceSourceBounds bottomLeftOrigin="true" height="50" width="141.3" x="-50.3" y="0.8">
   </sliceSourceBounds>
  </sfw>
 </metadata>
 <g>
  <path class="st0" d="M42.6,35.7h-4.6c-1.1,0-1.7-0.8-1.7-1.8V22.3c0-2.6-1.5-4.4-4.3-4.4c-2.3,0-4,1.3-5,3.1v14
		c0,0.4-0.2,0.7-0.5,0.7c0,0-0.1,0-0.2,0h-5.1c-0.2,0-0.3,0-0.4-0.1c-0.2-0.1-0.3-0.4-0.3-0.6v-30c0-1.4-0.2-2.3-0.3-3
		c-0.1-0.4-0.1-0.8-0.1-1.1C20.3,0.3,20.5,0,21,0h4.2c1.3,0,2,0.6,2,2.1v13.8c1.6-2,3.9-3.8,7.4-3.8c4.6,0,8.2,3,8.2,8.7v10.7
		c0,1.2,0.1,2,0.2,2.8c0,0.2,0,0.3,0.1,0.5C43.2,35.3,43,35.7,42.6,35.7z M1.8,29.4c0.3-0.5,0.7-0.5,1.2-0.3
		c0.9,0.5,3.7,1.8,6.4,1.8c1.8,0,2.9-0.8,2.9-1.8c0-1.4-1.5-1.9-4.4-2.8l-0.1,0c-4.4-1.4-7.1-3.4-7.2-7.2c0-3.9,2.9-7,8.8-7
		c3.6,0,5.8,1.2,7.7,2.3c0.5,0.3,0.6,0.6,0.4,1l-2,3.2c-0.3,0.4-0.7,0.5-1.1,0.3c-1.1-0.7-3.2-1.5-5.2-1.5c-2.3,0-2.9,1.1-2.9,1.8
		c0,1.3,1.7,1.8,3.8,2.4c5.4,1.5,8.3,3.5,8.3,7.4c0,4.8-4.1,7.1-9.1,7.1c-4.6,0-7.8-1.9-9-2.7c-0.3-0.2-0.4-0.5-0.2-1L1.8,29.4z
		 M115.8,35V13.1c0-0.5-0.3-0.8-0.7-0.8h-5c-0.4,0-0.7,0.4-0.7,0.8v14c-1,1.8-2.7,3.1-5,3.1c-2.7,0-4.3-1.8-4.3-4.4V14.2
		c0-1.1-0.6-1.8-1.7-1.8h-4.5c-0.4,0-0.6,0.5-0.5,1c0.1,0.9,0.3,1.9,0.3,3.3v10.7c0,5.7,3.7,8.7,8.2,8.7c3.5,0,5.9-1.8,7.4-3.8V35
		c0,0.5,0.3,0.7,0.7,0.7h5.1C115.5,35.7,115.8,35.4,115.8,35z M140.8,35.7h-4.6c-1.1,0-1.7-0.8-1.7-1.8V22.3c0-2.6-1.5-4.4-4.3-4.4
		c-2.2,0-3.9,1.3-5,3.1v14c0,0.4-0.3,0.8-0.7,0.8h-5.1c-0.4,0-0.7-0.3-0.7-0.8V13.1c0-0.4,0.3-0.7,0.7-0.7h5.1
		c0.4,0,0.7,0.3,0.7,0.7v2.8c1.6-2,3.9-3.8,7.5-3.8c4.5,0,8.2,3,8.2,8.7v10.7c0,1.4,0.1,2.4,0.2,3.3
		C141.4,35.3,141.2,35.7,140.8,35.7z M69.9,39.8c0.3-0.3,0.7-0.4,1.2-0.3l2.6,0.7c0.5,0.2,0.9,0.7,0.9,1.2v0c0,2.4,2.6,3.1,6,3.1
		c2.6,0,5-0.9,5-2.8c0-0.9-0.4-1.7-2.3-2l-2.9-0.5h0l-0.5-0.1c-2.6-0.5-5.5-1.1-7-1.4c-0.4-0.1-0.9-0.2-1.3-0.4
		c-1.9-0.7-3.2-1.9-3.2-4c0-2.7,2.2-4.3,4.6-4c-1-1-3-3-3.1-6.9c-0.1-5.8,4.2-10.3,10.7-10.3c1.1,0,2,0.1,3,0.2
		c1.7,0.2,3.6,0.5,7,0.2c0.4,0,0.8,0.3,0.7,0.7L91.2,16c-0.4,0.5-1.8,0.6-3.2,0.6c2,1.5,3,3.8,3,6.6c0,5.8-4.6,9.6-10.3,9.6
		c-1.9,0-3.1-0.5-4.2-0.9l0,0c-0.2-0.1-0.3-0.1-0.4-0.2c-1.8-0.5-2.4,0.2-2.4,0.9c0,1,1.3,1.2,3.4,1.5l0.2,0l6.9,1
		c5.3,0.8,8.3,2.3,8.3,6.5c0,6.1-6,8.4-12.5,8.3c-6.3,0-11.4-2.3-11.4-6.8C68.6,41.7,69.1,40.6,69.9,39.8z M80.5,17.6
		c2.6,0,4.7,1.9,4.7,4.8c0,2.7-1.8,4.7-4.6,4.7c-2.7,0-4.7-2-4.7-4.8C75.8,19.4,78,17.6,80.5,17.6z M56.5,11.8
		c-6.8,0-12.1,4.9-12.1,12.1c0,7.2,5.4,12,12.1,12c6.7,0,12.1-4.9,12.1-12C68.6,16.7,63.3,11.8,56.5,11.8z M62.7,23.9
		c0-3.7-2.6-6.5-6.2-6.5c-3.6,0-6.2,2.8-6.2,6.5c0,3.7,2.6,6.4,6.2,6.4C60.1,30.3,62.7,27.6,62.7,23.9z M67.6,4.9
		c0.3,1.4-0.7,2.8-2.1,3v0c-3.1,0.6-6.1,0.8-8.8,0.8c-5.2,0-9-0.7-9.3-0.8c-1.4-0.3-2.3-1.6-2.1-3.1c0.3-1.4,1.6-2.4,3-2.1
		c0.1,0,8.1,1.5,16.2,0C66,2.6,67.3,3.5,67.6,4.9z">
  </path>
 </g>
</svg>