<svg version="1.1" id="Layer_1" xmlns:x="ns_extend;" xmlns:i="ns_ai;" xmlns:graph="ns_graphs;" xmlns="http://www.w3.org/2000/svg" xmlns:xlink="http://www.w3.org/1999/xlink" x="0px" y="0px" viewBox="0 0 237.6 65" style="enable-background:new 0 0 237.6 65;" xml:space="preserve">
 <style type="text/css">
  .st0{fill-rule:evenodd;clip-rule:evenodd;fill:#FFFFFF;}
 </style>
 <metadata>
  <sfw xmlns="ns_sfw;">
   <slices>
   </slices>
   <sliceSourceBounds bottomLeftOrigin="true" height="65" width="237.6" x="-125.2" y="0.8">
   </sliceSourceBounds>
  </sfw>
 </metadata>
 <g>
  <g>
   <g>
    <g>
     <path class="st0" d="M13.4,9.2l8.7,24.1l9.2-24.1h13L22.1,65H9.2l6.6-17.3L0,9.2H13.4z M150.8,8.3c11.7,0,20.3,9.1,20.3,21.6
					s-8.6,21.6-20.3,21.6c-4.3,0-8-1.1-10.8-3.4l-0.2-0.1l-0.2-0.1V65h-12.5V9.2h11.1v4.2l0.1-0.1c2.7-3.1,6.9-4.8,12-4.9l0.3,0
					L150.8,8.3L150.8,8.3z M67.1,8.3c12.9,0,22.1,8.9,22.1,21.6c0,12.6-9.2,21.6-22.1,21.6c-13,0-22.2-9-22.2-21.6
					C45,17.2,54.1,8.3,67.1,8.3z M110.1,0v9.2h10.3V20h-10.3v14.9c0,3.3,1.6,5.2,4.6,5.3l0.1,0l0.1,0c2,0,3.5-0.5,4.9-1.8l0.1-0.1
					l0.3-0.3h0.1v11.9l-0.4,0.2c-2.1,1-3.3,1.4-6.9,1.4c-9.9,0-15.4-5.4-15.6-15.5l0-0.3v-0.3l0-15.4h-4.5V9.2h4.9V0H110.1L110.1,0z
					 M198.4,8.3c12.9,0,22.1,8.9,22.1,21.6c0,12.6-9.2,21.6-22.1,21.6c-13,0-22.2-9-22.2-21.6C176.3,17.2,185.4,8.3,198.4,8.3z
					 M230.8,37.8c3.8,0,6.9,3.1,6.9,6.9c0,3.8-3.1,6.9-6.9,6.9c-3.8,0-6.9-3.1-6.9-6.9S227,37.8,230.8,37.8z M148.9,19.6
					c-5.6,0-9.5,4.2-9.5,10.3c0,6.2,3.8,10.3,9.5,10.3c5.7,0,9.6-4.2,9.6-10.3C158.4,23.7,154.6,19.6,148.9,19.6z M67.1,19.6
					c-5.7,0-9.6,4.2-9.6,10.3c0,6.1,3.9,10.3,9.6,10.3c5.6,0,9.5-4.2,9.5-10.3C76.6,23.8,72.7,19.6,67.1,19.6L67.1,19.6z
					 M198.4,19.6c-5.7,0-9.6,4.2-9.6,10.3c0,6.1,3.9,10.3,9.6,10.3c5.6,0,9.5-4.2,9.5-10.3C207.9,23.8,204,19.6,198.4,19.6z">
     </path>
    </g>
   </g>
  </g>
 </g>
</svg>